<svg width="145" height="21" fill="none" xmlns="http://www.w3.org/2000/svg"><path d="M13.284 9.086l-2.54 6.208L4.666.462H.393l8.404 20.53h3.893l2.73-6.64-2.136-5.266zM26.151.462l-6.053 14.832-2.54-6.208-2.137 5.267 2.706 6.64h3.917L30.45.462h-4.3zm-10.73 3.383l-.926 2.29.926 2.264.926-2.264-.926-2.29zM67.273 13.92l1.069-2.595 1.068 2.595h-2.137zM40.159.462v4.197h11.206L40.159 15.93v5.063h15.788v-4.198H45.049L55.995 5.779V.462H40.16zm75.308 10.278c0-5.674-4.297-10.278-9.592-10.278h-6.552v4.197h6.552c3.111 0 5.651 2.723 5.651 6.08 0 3.334-2.54 6.056-5.651 6.056h-3.988l4.891 4.172c4.867-.483 8.689-4.884 8.689-10.227z" fill="#fff"/><path d="M104.996 12.063c.695 0 1.258-.604 1.258-1.349 0-.744-.563-1.348-1.258-1.348-.695 0-1.258.604-1.258 1.348 0 .745.563 1.349 1.258 1.349zM68.34 5.397l4.653 11.398h-6.98v4.172h12.986L70.619.462H66.06l-8.38 20.505h4.297l6.362-15.57zM127.859.462h-4.274l-8.404 20.505h4.297L127.859.462zm6.482 4.935l4.653 11.398h-6.647v4.172h12.654L136.62.462h-4.534l-8.405 20.505h4.297l6.363-15.57zm-49.69-.737h4.772c1.804 0 3.276 1.577 3.276 3.51 0 1.934-1.472 3.511-3.276 3.511h-2.28v4.783l5.272 4.503h6.29l-6.623-5.648c2.635-1.145 4.51-3.918 4.51-7.149 0-4.248-3.228-7.708-7.193-7.708H80.71v20.505h3.917V4.66h.024zM36.313.462h-3.917v20.505h3.917V.462z" fill="#fff"/></svg>