<svg width="58" height="51" fill="none" xmlns="http://www.w3.org/2000/svg"><circle cx="29" cy="26.753" r="23.5" fill="#0E0F10" stroke="url(#paint0_linear_4709_17361)"/><circle cx="29" cy="27" r="18.5" fill="#0E0F10" stroke="url(#paint1_linear_4709_17361)"/><path opacity=".2" d="M0 26.5C0 19.596 5.596 14 12.5 14h33C52.404 14 58 19.596 58 26.5S52.404 39 45.5 39h-33C5.596 39 0 33.404 0 26.5z" fill="url(#paint2_linear_4709_17361)"/><path d="M14.783 29.502c-.415 0-.77-.148-1.066-.444a1.454 1.454 0 01-.444-1.066.606.606 0 00-.185-.445.606.606 0 00-.444-.184.583.583 0 00-.438.184.605.605 0 00-.184.445c0 .76.27 1.41.813 1.948a2.643 2.643 0 001.948.813h1.702c.761 0 1.413-.27 1.955-.813a2.643 2.643 0 00.814-1.948c0-.766-.271-1.418-.814-1.955a2.666 2.666 0 00-1.955-.814h-1.702c-.415 0-.77-.148-1.066-.444a1.462 1.462 0 01-.444-1.073c0-.415.148-.77.444-1.067a1.454 1.454 0 011.066-.444h1.702c.42 0 .777.148 1.074.444.296.296.444.652.444 1.067 0 .173.061.32.184.444a.584.584 0 00.438.184.606.606 0 00.444-.184.605.605 0 00.185-.444c0-.761-.271-1.41-.814-1.949a2.666 2.666 0 00-1.955-.813h-1.702c-.76 0-1.41.271-1.948.813a2.643 2.643 0 00-.814 1.949c0 .765.272 1.417.814 1.955a2.643 2.643 0 001.948.813h1.702c.42 0 .777.148 1.074.445.296.296.444.653.444 1.073 0 .414-.148.77-.444 1.066a1.462 1.462 0 01-1.074.444h-1.702zm10.74-7.307c1.011 0 1.872.358 2.583 1.073a3.508 3.508 0 011.074 2.584 3.52 3.52 0 01-1.074 2.584c-.71.711-1.572 1.066-2.584 1.066a3.533 3.533 0 01-2.583-1.066 3.533 3.533 0 01-1.067-2.584c0-1.012.355-1.873 1.067-2.584.715-.715 1.576-1.073 2.584-1.073zm0 8.558c1.358 0 2.515-.478 3.472-1.435.957-.957 1.436-2.112 1.436-3.466 0-1.358-.479-2.516-1.436-3.473-.957-.957-2.114-1.435-3.473-1.435-1.353 0-2.508.478-3.465 1.435-.957.957-1.436 2.115-1.436 3.473 0 1.354.479 2.509 1.436 3.466.957.957 2.112 1.435 3.466 1.435zm10.028 0c1.03 0 1.912-.366 2.645-1.1a3.593 3.593 0 001.1-2.646v-5.441a.598.598 0 00-.184-.438.606.606 0 00-.444-.184.598.598 0 00-.438.184.598.598 0 00-.184.438v5.441c0 .688-.244 1.276-.731 1.764a2.404 2.404 0 01-1.764.731 2.404 2.404 0 01-1.764-.731 2.404 2.404 0 01-.731-1.764v-5.441a.598.598 0 00-.185-.438.606.606 0 00-.444-.184.584.584 0 00-.438.184.598.598 0 00-.184.438v5.441c0 1.035.367 1.917 1.1 2.646.73.734 1.611 1.1 2.646 1.1zm11.799 0a.605.605 0 00.444-.184.583.583 0 00.184-.438.606.606 0 00-.184-.444.606.606 0 00-.444-.185h-5.435v-7.936a.598.598 0 00-.184-.438.606.606 0 00-.445-.184.584.584 0 00-.437.184.598.598 0 00-.185.438v8.565c0 .174.062.32.185.438a.583.583 0 00.437.184h6.064z" fill="#7AEBE4"/><defs><linearGradient id="paint0_linear_4709_17361" x1="20.41" y1="2.753" x2="20.41" y2="35.033" gradientUnits="userSpaceOnUse"><stop stop-color="#7AEBE4" stop-opacity=".2"/><stop offset=".516" stop-color="#7AEBE4"/><stop offset="1" stop-color="#7AEBE4" stop-opacity=".2"/></linearGradient><linearGradient id="paint1_linear_4709_17361" x1="22.2" y1="8" x2="22.2" y2="46" gradientUnits="userSpaceOnUse"><stop stop-color="#7AEBE4"/><stop offset=".323" stop-color="#7AEBE4" stop-opacity=".253"/><stop offset=".516" stop-color="#7AEBE4" stop-opacity="0"/><stop offset=".682" stop-color="#7AEBE4" stop-opacity=".183"/><stop offset="1" stop-color="#7AEBE4"/></linearGradient><linearGradient id="paint2_linear_4709_17361" x1="58" y1="27" x2="0" y2="27" gradientUnits="userSpaceOnUse"><stop stop-color="#7AEBE4"/><stop offset="1" stop-color="#7AEBE4" stop-opacity=".1"/></linearGradient></defs></svg>